<svg id="visual" viewBox="0 0 960 540" width="960" height="540" xmlns="http://www.w3.org/2000/svg" xmlns:xlink="http://www.w3.org/1999/xlink" version="1.1"><rect x="0" y="0" width="960" height="540" fill="#002233"></rect><path d="M0 385L10.7 385C21.3 385 42.7 385 64 378.8C85.3 372.7 106.7 360.3 128 362.5C149.3 364.7 170.7 381.3 192 382.3C213.3 383.3 234.7 368.7 256 374.7C277.3 380.7 298.7 407.3 320 403.7C341.3 400 362.7 366 384 350.8C405.3 335.7 426.7 339.3 448 344.3C469.3 349.3 490.7 355.7 512 365.3C533.3 375 554.7 388 576 398.8C597.3 409.7 618.7 418.3 640 407.8C661.3 397.3 682.7 367.7 704 350C725.3 332.3 746.7 326.7 768 323.3C789.3 320 810.7 319 832 329C853.3 339 874.7 360 896 377C917.3 394 938.7 407 949.3 413.5L960 420L960 541L949.3 541C938.7 541 917.3 541 896 541C874.7 541 853.3 541 832 541C810.7 541 789.3 541 768 541C746.7 541 725.3 541 704 541C682.7 541 661.3 541 640 541C618.7 541 597.3 541 576 541C554.7 541 533.3 541 512 541C490.7 541 469.3 541 448 541C426.7 541 405.3 541 384 541C362.7 541 341.3 541 320 541C298.7 541 277.3 541 256 541C234.7 541 213.3 541 192 541C170.7 541 149.3 541 128 541C106.7 541 85.3 541 64 541C42.7 541 21.3 541 10.7 541L0 541Z" fill="#0066FF" stroke-linecap="round" stroke-linejoin="miter"></path></svg>